# Blender v2.90.0 OBJ File: 'ladrilobase.blend'
# www.blender.org
mtllib ladrilobase.mtl
o Cube
v 0.500000 0.000000 1.000000
v 0.500000 0.000000 -1.000000
v 0.000000 0.500000 -1.000000
v 0.000000 0.500000 1.000000
v -0.500000 0.000000 -1.000000
v -0.500000 0.000000 1.000000
v 0.500000 1.000000 0.000000
v 0.500000 -1.000000 0.000000
v 1.000000 0.500000 0.000000
v -1.000000 0.500000 0.000000
v -0.500000 -1.000000 0.000000
v -0.500000 1.000000 0.000000
v 0.000000 -1.000000 0.500000
v 0.000000 1.000000 0.500000
v 1.000000 0.000000 0.500000
v -1.000000 0.000000 0.500000
v -1.000000 0.000000 -0.500000
v 0.000000 -1.000000 -0.500000
v 0.000000 1.000000 -0.500000
v 1.000000 0.000000 -0.500000
v 0.000000 -0.500000 -1.000000
v 0.000000 -0.500000 1.000000
v -1.000000 -0.500000 0.000000
v 1.000000 -0.500000 0.000000
vt 0.562500 0.250000
vt 0.625000 0.250000
vt 0.625000 0.312500
vt 0.562500 0.312500
vt 0.500000 0.250000
vt 0.500000 0.186503
vt 0.437500 0.312500
vt 0.500000 0.312500
vt 0.562500 0.437500
vt 0.500000 0.437500
vt 0.375000 0.750000
vt 0.437500 0.686503
vt 0.500000 0.686503
vt 0.500000 0.812500
vt 0.437500 0.812500
vt 0.375000 0.812500
vt 0.500000 0.000000
vt 0.500000 0.063497
vt 0.437500 1.000000
vt 0.375000 1.000000
vt 0.375000 0.937500
vt 0.437500 0.937500
vt 0.562500 0.937500
vt 0.500000 0.937500
vt 0.437500 0.875000
vt 0.562500 0.812500
vt 0.500000 0.750000
vt 0.562500 0.750000
vt 0.625000 0.750000
vt 0.625000 0.812500
vt 0.375000 0.250000
vt 0.437500 0.186503
vt 0.375000 0.312500
vt 0.812500 0.625000
vt 0.750000 0.686503
vt 0.687500 0.625000
vt 0.812500 0.563497
vt 0.437500 0.063497
vt 0.562500 0.186503
vt 0.187500 0.625000
vt 0.312500 0.563497
vt 0.312500 0.625000
vt 0.250000 0.686503
vt 0.562500 0.686503
vt 0.437500 0.563497
vt 0.500000 0.563497
vt 0.437500 0.437500
vt 0.500000 0.500000
vt 0.437500 0.500000
vt 0.375000 0.500000
vt 0.375000 0.437500
vt 0.625000 0.437500
vt 0.625000 0.500000
vt 0.562500 0.563497
vt 0.625000 0.937500
vt 0.625000 1.000000
vt 0.562500 0.063497
vn -0.5774 0.5774 -0.5774
vn 0.0000 0.0000 -1.0000
vn 0.5774 -0.5774 0.5774
vn -0.5774 -0.5774 0.5774
vn 0.0000 0.0000 1.0000
vn 0.5774 0.5774 0.5774
vn -0.5774 -0.5774 -0.5774
vn 0.0000 1.0000 0.0000
vn -1.0000 0.0000 0.0000
vn 0.0000 -1.0000 0.0000
vn 1.0000 0.0000 0.0000
vn 0.5774 -0.5774 -0.5774
vn 0.5774 0.5774 -0.5774
vn -0.5774 0.5774 0.5774
usemtl Material
s off
f 10/1/1 12/2/1 19/3/1 3/4/1 5/5/1 17/6/1
f 21/7/2 5/8/2 3/9/2 2/10/2
f 8/11/3 24/12/3 15/13/3 1/14/3 22/15/3 13/16/3
f 6/17/4 16/18/4 23/19/4 11/20/4 13/21/4 22/22/4
f 4/23/5 6/24/5 22/25/5 1/14/5
f 4/26/6 1/27/6 15/13/6 9/28/6 7/29/6 14/30/6
f 11/31/7 23/32/7 17/6/7 5/8/7 21/7/7 18/33/7
f 12/34/8 14/35/8 7/36/8 19/37/8
f 23/38/9 16/18/9 10/39/9 17/6/9
f 11/40/10 18/41/10 8/42/10 13/43/10
f 9/44/11 15/13/11 24/45/11 20/46/11
f 21/47/12 2/48/12 20/46/12 24/49/12 8/50/12 18/51/12
f 2/10/13 3/9/13 19/52/13 7/53/13 9/54/13 20/46/13
f 6/24/14 4/23/14 14/55/14 12/56/14 10/57/14 16/18/14
